{
    "asset" : {
        "generator" : "Khronos glTF Blender I/O v3.3.27",
        "version" : "2.0"
    },
    "scene" : 0,
    "scenes" : [
        {
            "name" : "Scene",
            "nodes" : [
                0
            ]
        }
    ],
    "nodes" : [
        {
            "mesh" : 0,
            "name" : "GroundCircle",
            "translation" : [
                0,
                0.14890386164188385,
                0
            ]
        }
    ],
    "animations" : [
        {
            "channels" : [
                {
                    "sampler" : 0,
                    "target" : {
                        "node" : 0,
                        "path" : "translation"
                    }
                },
                {
                    "sampler" : 1,
                    "target" : {
                        "node" : 0,
                        "path" : "rotation"
                    }
                },
                {
                    "sampler" : 2,
                    "target" : {
                        "node" : 0,
                        "path" : "scale"
                    }
                }
            ],
            "name" : "Circle.004Action",
            "samplers" : [
                {
                    "input" : 10,
                    "interpolation" : "STEP",
                    "output" : 11
                },
                {
                    "input" : 10,
                    "interpolation" : "STEP",
                    "output" : 12
                },
                {
                    "input" : 10,
                    "interpolation" : "STEP",
                    "output" : 13
                }
            ]
        }
    ],
    "materials" : [
        {
            "doubleSided" : true,
            "name" : "Dark",
            "pbrMetallicRoughness" : {
                "baseColorFactor" : [
                    0.05879765748977661,
                    0.061740774661302567,
                    0.07657573372125626,
                    1
                ],
                "metallicFactor" : 0.4300518035888672,
                "roughnessFactor" : 0.5
            }
        },
        {
            "doubleSided" : true,
            "name" : "Screen",
            "pbrMetallicRoughness" : {
                "baseColorFactor" : [
                    0.004428973887115717,
                    0.004428973887115717,
                    0.004428973887115717,
                    1
                ],
                "metallicFactor" : 0,
                "roughnessFactor" : 0.040880490094423294
            }
        }
    ],
    "meshes" : [
        {
            "name" : "Circle.004",
            "primitives" : [
                {
                    "attributes" : {
                        "POSITION" : 0,
                        "NORMAL" : 1,
                        "TEXCOORD_0" : 2,
                        "TEXCOORD_1" : 3
                    },
                    "indices" : 4,
                    "material" : 0
                },
                {
                    "attributes" : {
                        "POSITION" : 5,
                        "NORMAL" : 6,
                        "TEXCOORD_0" : 7,
                        "TEXCOORD_1" : 8
                    },
                    "indices" : 9,
                    "material" : 1
                }
            ]
        }
    ],
    "accessors" : [
        {
            "bufferView" : 0,
            "componentType" : 5126,
            "count" : 4216,
            "max" : [
                3.153386116027832,
                0.010790236294269562,
                3.153386116027832
            ],
            "min" : [
                -3.1533870697021484,
                -0.23507817089557648,
                -3.153386116027832
            ],
            "type" : "VEC3"
        },
        {
            "bufferView" : 1,
            "componentType" : 5126,
            "count" : 4216,
            "type" : "VEC3"
        },
        {
            "bufferView" : 2,
            "componentType" : 5126,
            "count" : 4216,
            "type" : "VEC2"
        },
        {
            "bufferView" : 3,
            "componentType" : 5126,
            "count" : 4216,
            "type" : "VEC2"
        },
        {
            "bufferView" : 4,
            "componentType" : 5123,
            "count" : 19764,
            "type" : "SCALAR"
        },
        {
            "bufferView" : 5,
            "componentType" : 5126,
            "count" : 887,
            "max" : [
                2.9015986919403076,
                -0.007603493519127369,
                2.9015982151031494
            ],
            "min" : [
                -2.901599645614624,
                -0.010319570079445839,
                -2.9015982151031494
            ],
            "type" : "VEC3"
        },
        {
            "bufferView" : 6,
            "componentType" : 5126,
            "count" : 887,
            "type" : "VEC3"
        },
        {
            "bufferView" : 7,
            "componentType" : 5126,
            "count" : 887,
            "type" : "VEC2"
        },
        {
            "bufferView" : 8,
            "componentType" : 5126,
            "count" : 887,
            "type" : "VEC2"
        },
        {
            "bufferView" : 9,
            "componentType" : 5123,
            "count" : 3264,
            "type" : "SCALAR"
        },
        {
            "bufferView" : 10,
            "componentType" : 5126,
            "count" : 1,
            "max" : [
                0
            ],
            "min" : [
                0
            ],
            "type" : "SCALAR"
        },
        {
            "bufferView" : 11,
            "componentType" : 5126,
            "count" : 1,
            "type" : "VEC3"
        },
        {
            "bufferView" : 12,
            "componentType" : 5126,
            "count" : 1,
            "type" : "VEC4"
        },
        {
            "bufferView" : 13,
            "componentType" : 5126,
            "count" : 1,
            "type" : "VEC3"
        }
    ],
    "bufferViews" : [
        {
            "buffer" : 0,
            "byteLength" : 50592,
            "byteOffset" : 0,
            "target" : 34962
        },
        {
            "buffer" : 0,
            "byteLength" : 50592,
            "byteOffset" : 50592,
            "target" : 34962
        },
        {
            "buffer" : 0,
            "byteLength" : 33728,
            "byteOffset" : 101184,
            "target" : 34962
        },
        {
            "buffer" : 0,
            "byteLength" : 33728,
            "byteOffset" : 134912,
            "target" : 34962
        },
        {
            "buffer" : 0,
            "byteLength" : 39528,
            "byteOffset" : 168640,
            "target" : 34963
        },
        {
            "buffer" : 0,
            "byteLength" : 10644,
            "byteOffset" : 208168,
            "target" : 34962
        },
        {
            "buffer" : 0,
            "byteLength" : 10644,
            "byteOffset" : 218812,
            "target" : 34962
        },
        {
            "buffer" : 0,
            "byteLength" : 7096,
            "byteOffset" : 229456,
            "target" : 34962
        },
        {
            "buffer" : 0,
            "byteLength" : 7096,
            "byteOffset" : 236552,
            "target" : 34962
        },
        {
            "buffer" : 0,
            "byteLength" : 6528,
            "byteOffset" : 243648,
            "target" : 34963
        },
        {
            "buffer" : 0,
            "byteLength" : 4,
            "byteOffset" : 250176
        },
        {
            "buffer" : 0,
            "byteLength" : 12,
            "byteOffset" : 250180
        },
        {
            "buffer" : 0,
            "byteLength" : 16,
            "byteOffset" : 250192
        },
        {
            "buffer" : 0,
            "byteLength" : 12,
            "byteOffset" : 250208
        }
    ],
    "buffers" : [
        {
            "byteLength" : 250220,
            "uri" : "data:application/octet-stream;base64,"
        }
    ]
}
