{
    "asset" : {
        "generator" : "Khronos glTF Blender I/O v1.6.16",
        "version" : "2.0"
    },
    "scene" : 0,
    "scenes" : [
        {
            "name" : "Scene",
            "nodes" : [
                0
            ]
        }
    ],
    "nodes" : [
        {
            "mesh" : 0,
            "name" : "Old pc",
            "scale" : [
                0.3168625831604004,
                0.31686246395111084,
                0.3168625831604004
            ],
            "translation" : [
                0,
                0.3857831656932831,
                -0.19887597858905792
            ]
        }
    ],
    "materials" : [
        {
            "doubleSided" : true,
            "name" : "OLD",
            "pbrMetallicRoughness" : {
                "baseColorFactor" : [
                    0.8000000715255737,
                    0.7392539381980896,
                    0.6100050210952759,
                    1
                ],
                "metallicFactor" : 0,
                "roughnessFactor" : 0.5
            }
        },
        {
            "doubleSided" : true,
            "name" : "Material.008",
            "pbrMetallicRoughness" : {
                "baseColorFactor" : [
                    0.012606922537088394,
                    0.012606922537088394,
                    0.012606922537088394,
                    1
                ],
                "metallicFactor" : 0,
                "roughnessFactor" : 0.5
            }
        },
        {
            "doubleSided" : true,
            "name" : "Screen",
            "pbrMetallicRoughness" : {
                "baseColorFactor" : [
                    0.004428973887115717,
                    0.004428973887115717,
                    0.004428973887115717,
                    1
                ],
                "metallicFactor" : 0,
                "roughnessFactor" : 0.040880490094423294
            }
        },
        {
            "doubleSided" : true,
            "name" : "Dark",
            "pbrMetallicRoughness" : {
                "baseColorFactor" : [
                    0.05879765748977661,
                    0.061740774661302567,
                    0.07657573372125626,
                    1
                ],
                "metallicFactor" : 0.4300518035888672,
                "roughnessFactor" : 0.5
            }
        }
    ],
    "meshes" : [
        {
            "name" : "Cube.010",
            "primitives" : [
                {
                    "attributes" : {
                        "POSITION" : 0,
                        "NORMAL" : 1,
                        "TEXCOORD_0" : 2
                    },
                    "indices" : 3,
                    "material" : 0
                },
                {
                    "attributes" : {
                        "POSITION" : 4,
                        "NORMAL" : 5,
                        "TEXCOORD_0" : 6
                    },
                    "indices" : 7,
                    "material" : 1
                },
                {
                    "attributes" : {
                        "POSITION" : 8,
                        "NORMAL" : 9,
                        "TEXCOORD_0" : 10
                    },
                    "indices" : 11,
                    "material" : 2
                },
                {
                    "attributes" : {
                        "POSITION" : 12,
                        "NORMAL" : 13,
                        "TEXCOORD_0" : 14
                    },
                    "indices" : 15,
                    "material" : 3
                }
            ]
        }
    ],
    "accessors" : [
        {
            "bufferView" : 0,
            "componentType" : 5126,
            "count" : 742,
            "max" : [
                1.5671573877334595,
                1,
                2.250335693359375
            ],
            "min" : [
                -1.5671573877334595,
                -1.2238638401031494,
                -1
            ],
            "type" : "VEC3"
        },
        {
            "bufferView" : 1,
            "componentType" : 5126,
            "count" : 742,
            "type" : "VEC3"
        },
        {
            "bufferView" : 2,
            "componentType" : 5126,
            "count" : 742,
            "type" : "VEC2"
        },
        {
            "bufferView" : 3,
            "componentType" : 5123,
            "count" : 1863,
            "type" : "SCALAR"
        },
        {
            "bufferView" : 4,
            "componentType" : 5126,
            "count" : 754,
            "max" : [
                1.5565698146820068,
                1,
                2.245944023132324
            ],
            "min" : [
                -1.5565698146820068,
                -1.2238638401031494,
                -1
            ],
            "type" : "VEC3"
        },
        {
            "bufferView" : 5,
            "componentType" : 5126,
            "count" : 754,
            "type" : "VEC3"
        },
        {
            "bufferView" : 6,
            "componentType" : 5126,
            "count" : 754,
            "type" : "VEC2"
        },
        {
            "bufferView" : 7,
            "componentType" : 5123,
            "count" : 1515,
            "type" : "SCALAR"
        },
        {
            "bufferView" : 8,
            "componentType" : 5126,
            "count" : 24,
            "max" : [
                0.43968671560287476,
                0.583376407623291,
                0.9068643450737
            ],
            "min" : [
                -1.32607901096344,
                -0.5328341126441956,
                0.7311350703239441
            ],
            "type" : "VEC3"
        },
        {
            "bufferView" : 9,
            "componentType" : 5126,
            "count" : 24,
            "type" : "VEC3"
        },
        {
            "bufferView" : 10,
            "componentType" : 5126,
            "count" : 24,
            "type" : "VEC2"
        },
        {
            "bufferView" : 11,
            "componentType" : 5123,
            "count" : 66,
            "type" : "SCALAR"
        },
        {
            "bufferView" : 12,
            "componentType" : 5126,
            "count" : 896,
            "max" : [
                1.3804373741149902,
                0.5529634356498718,
                0.9130046367645264
            ],
            "min" : [
                0.7367277145385742,
                -0.17430751025676727,
                0.7148504853248596
            ],
            "type" : "VEC3"
        },
        {
            "bufferView" : 13,
            "componentType" : 5126,
            "count" : 896,
            "type" : "VEC3"
        },
        {
            "bufferView" : 14,
            "componentType" : 5126,
            "count" : 896,
            "type" : "VEC2"
        },
        {
            "bufferView" : 15,
            "componentType" : 5123,
            "count" : 1512,
            "type" : "SCALAR"
        }
    ],
    "bufferViews" : [
        {
            "buffer" : 0,
            "byteLength" : 8904,
            "byteOffset" : 0
        },
        {
            "buffer" : 0,
            "byteLength" : 8904,
            "byteOffset" : 8904
        },
        {
            "buffer" : 0,
            "byteLength" : 5936,
            "byteOffset" : 17808
        },
        {
            "buffer" : 0,
            "byteLength" : 3726,
            "byteOffset" : 23744
        },
        {
            "buffer" : 0,
            "byteLength" : 9048,
            "byteOffset" : 27472
        },
        {
            "buffer" : 0,
            "byteLength" : 9048,
            "byteOffset" : 36520
        },
        {
            "buffer" : 0,
            "byteLength" : 6032,
            "byteOffset" : 45568
        },
        {
            "buffer" : 0,
            "byteLength" : 3030,
            "byteOffset" : 51600
        },
        {
            "buffer" : 0,
            "byteLength" : 288,
            "byteOffset" : 54632
        },
        {
            "buffer" : 0,
            "byteLength" : 288,
            "byteOffset" : 54920
        },
        {
            "buffer" : 0,
            "byteLength" : 192,
            "byteOffset" : 55208
        },
        {
            "buffer" : 0,
            "byteLength" : 132,
            "byteOffset" : 55400
        },
        {
            "buffer" : 0,
            "byteLength" : 10752,
            "byteOffset" : 55532
        },
        {
            "buffer" : 0,
            "byteLength" : 10752,
            "byteOffset" : 66284
        },
        {
            "buffer" : 0,
            "byteLength" : 7168,
            "byteOffset" : 77036
        },
        {
            "buffer" : 0,
            "byteLength" : 3024,
            "byteOffset" : 84204
        }
    ],
    "buffers" : [
        {
            "byteLength" : 87228,
            "uri" : "data:application/octet-stream;base64,"
        }
    ]
}
