{
    "asset" : {
        "generator" : "Khronos glTF Blender I/O v1.6.16",
        "version" : "2.0"
    },
    "scene" : 0,
    "scenes" : [
        {
            "name" : "Scene",
            "nodes" : [
                0
            ]
        }
    ],
    "nodes" : [
        {
            "mesh" : 0,
            "name" : "Old pc",
            "scale" : [
                0.3168625831604004,
                0.31686246395111084,
                0.3168625831604004
            ],
            "translation" : [
                0,
                0.3584868013858795,
                0
            ]
        }
    ],
    "materials" : [
        {
            "doubleSided" : true,
            "name" : "OLD",
            "pbrMetallicRoughness" : {
                "baseColorFactor" : [
                    0.8000000715255737,
                    0.7392539381980896,
                    0.6100050210952759,
                    1
                ],
                "metallicFactor" : 0,
                "roughnessFactor" : 0.5
            }
        },
        {
            "doubleSided" : true,
            "name" : "Material.008",
            "pbrMetallicRoughness" : {
                "baseColorFactor" : [
                    0.012606922537088394,
                    0.012606922537088394,
                    0.012606922537088394,
                    1
                ],
                "metallicFactor" : 0,
                "roughnessFactor" : 0.5
            }
        },
        {
            "doubleSided" : true,
            "name" : "Screen",
            "pbrMetallicRoughness" : {
                "baseColorFactor" : [
                    0.004428973887115717,
                    0.004428973887115717,
                    0.004428973887115717,
                    1
                ],
                "metallicFactor" : 0,
                "roughnessFactor" : 0.040880490094423294
            }
        },
        {
            "doubleSided" : true,
            "name" : "Dark",
            "pbrMetallicRoughness" : {
                "baseColorFactor" : [
                    0.05879765748977661,
                    0.061740774661302567,
                    0.07657573372125626,
                    1
                ],
                "metallicFactor" : 0.4300518035888672,
                "roughnessFactor" : 0.5
            }
        }
    ],
    "meshes" : [
        {
            "name" : "Cube.010",
            "primitives" : [
                {
                    "attributes" : {
                        "POSITION" : 0,
                        "NORMAL" : 1,
                        "TEXCOORD_0" : 2
                    },
                    "indices" : 3,
                    "material" : 0
                },
                {
                    "attributes" : {
                        "POSITION" : 4,
                        "NORMAL" : 5,
                        "TEXCOORD_0" : 6
                    },
                    "indices" : 7,
                    "material" : 1
                },
                {
                    "attributes" : {
                        "POSITION" : 8,
                        "NORMAL" : 9,
                        "TEXCOORD_0" : 10
                    },
                    "indices" : 11,
                    "material" : 2
                },
                {
                    "attributes" : {
                        "POSITION" : 12,
                        "NORMAL" : 13,
                        "TEXCOORD_0" : 14
                    },
                    "indices" : 15,
                    "material" : 3
                }
            ]
        }
    ],
    "accessors" : [
        {
            "bufferView" : 0,
            "componentType" : 5126,
            "count" : 953,
            "max" : [
                1.5671573877334595,
                1,
                2.250335693359375
            ],
            "min" : [
                -1.5671573877334595,
                -1.2238638401031494,
                -1
            ],
            "type" : "VEC3"
        },
        {
            "bufferView" : 1,
            "componentType" : 5126,
            "count" : 953,
            "type" : "VEC3"
        },
        {
            "bufferView" : 2,
            "componentType" : 5126,
            "count" : 953,
            "type" : "VEC2"
        },
        {
            "bufferView" : 3,
            "componentType" : 5123,
            "count" : 3387,
            "type" : "SCALAR"
        },
        {
            "bufferView" : 4,
            "componentType" : 5126,
            "count" : 947,
            "max" : [
                1.561863660812378,
                1,
                2.245944023132324
            ],
            "min" : [
                -1.561863660812378,
                -1.2238638401031494,
                -1
            ],
            "type" : "VEC3"
        },
        {
            "bufferView" : 5,
            "componentType" : 5126,
            "count" : 947,
            "type" : "VEC3"
        },
        {
            "bufferView" : 6,
            "componentType" : 5126,
            "count" : 947,
            "type" : "VEC2"
        },
        {
            "bufferView" : 7,
            "componentType" : 5123,
            "count" : 3039,
            "type" : "SCALAR"
        },
        {
            "bufferView" : 8,
            "componentType" : 5126,
            "count" : 48,
            "max" : [
                0.4449805021286011,
                0.5888264179229736,
                0.9090889096260071
            ],
            "min" : [
                -1.3313727378845215,
                -0.537842869758606,
                0.7311350703239441
            ],
            "type" : "VEC3"
        },
        {
            "bufferView" : 9,
            "componentType" : 5126,
            "count" : 48,
            "type" : "VEC3"
        },
        {
            "bufferView" : 10,
            "componentType" : 5126,
            "count" : 48,
            "type" : "VEC2"
        },
        {
            "bufferView" : 11,
            "componentType" : 5123,
            "count" : 210,
            "type" : "SCALAR"
        },
        {
            "bufferView" : 12,
            "componentType" : 5126,
            "count" : 1920,
            "max" : [
                1.3804373741149902,
                0.5529634356498718,
                0.9130046367645264
            ],
            "min" : [
                0.7367277145385742,
                -0.17430751025676727,
                0.7148504853248596
            ],
            "type" : "VEC3"
        },
        {
            "bufferView" : 13,
            "componentType" : 5126,
            "count" : 1920,
            "type" : "VEC3"
        },
        {
            "bufferView" : 14,
            "componentType" : 5126,
            "count" : 1920,
            "type" : "VEC2"
        },
        {
            "bufferView" : 15,
            "componentType" : 5123,
            "count" : 3048,
            "type" : "SCALAR"
        }
    ],
    "bufferViews" : [
        {
            "buffer" : 0,
            "byteLength" : 11436,
            "byteOffset" : 0
        },
        {
            "buffer" : 0,
            "byteLength" : 11436,
            "byteOffset" : 11436
        },
        {
            "buffer" : 0,
            "byteLength" : 7624,
            "byteOffset" : 22872
        },
        {
            "buffer" : 0,
            "byteLength" : 6774,
            "byteOffset" : 30496
        },
        {
            "buffer" : 0,
            "byteLength" : 11364,
            "byteOffset" : 37272
        },
        {
            "buffer" : 0,
            "byteLength" : 11364,
            "byteOffset" : 48636
        },
        {
            "buffer" : 0,
            "byteLength" : 7576,
            "byteOffset" : 60000
        },
        {
            "buffer" : 0,
            "byteLength" : 6078,
            "byteOffset" : 67576
        },
        {
            "buffer" : 0,
            "byteLength" : 576,
            "byteOffset" : 73656
        },
        {
            "buffer" : 0,
            "byteLength" : 576,
            "byteOffset" : 74232
        },
        {
            "buffer" : 0,
            "byteLength" : 384,
            "byteOffset" : 74808
        },
        {
            "buffer" : 0,
            "byteLength" : 420,
            "byteOffset" : 75192
        },
        {
            "buffer" : 0,
            "byteLength" : 23040,
            "byteOffset" : 75612
        },
        {
            "buffer" : 0,
            "byteLength" : 23040,
            "byteOffset" : 98652
        },
        {
            "buffer" : 0,
            "byteLength" : 15360,
            "byteOffset" : 121692
        },
        {
            "buffer" : 0,
            "byteLength" : 6096,
            "byteOffset" : 137052
        }
    ],
    "buffers" : [
        {
            "byteLength" : 143148,
            "uri" : "data:application/octet-stream;base64,"
        }
    ]
}
