{
    "asset" : {
        "generator" : "Khronos glTF Blender I/O v1.6.16",
        "version" : "2.0"
    },
    "scene" : 0,
    "scenes" : [
        {
            "name" : "Scene",
            "nodes" : [
                0,
                1,
                2,
                3
            ]
        }
    ],
    "nodes" : [
        {
            "mesh" : 0,
            "name" : "Cube.011",
            "scale" : [
                0.09458953142166138,
                0.09458953142166138,
                0.09458953142166138
            ],
            "translation" : [
                -0.1353936493396759,
                0.09376485645771027,
                0.11736944317817688
            ]
        },
        {
            "mesh" : 1,
            "name" : "Cube.027",
            "translation" : [
                0.0009498298168182373,
                0.43678656220436096,
                -0.0891130119562149
            ]
        },
        {
            "mesh" : 2,
            "name" : "62609592-f04b-4832-85dd-8de108ac1490_536x518",
            "rotation" : [
                0.7071068286895752,
                0,
                0,
                0.7071068286895752
            ],
            "scale" : [
                0.5884393453598022,
                0.5884393453598022,
                0.5884393453598022
            ],
            "translation" : [
                0.0007550418376922607,
                0.4375302791595459,
                -0.029313409700989723
            ]
        },
        {
            "mesh" : 3,
            "name" : "Text.002",
            "rotation" : [
                0.6321921944618225,
                0,
                0,
                0.7748116254806519
            ],
            "scale" : [
                0.15890191495418549,
                0.15890191495418549,
                0.15890191495418549
            ],
            "translation" : [
                -0.04062846302986145,
                0.06092195212841034,
                0.22315028309822083
            ]
        }
    ],
    "materials" : [
        {
            "doubleSided" : true,
            "name" : "OLD",
            "pbrMetallicRoughness" : {
                "baseColorFactor" : [
                    0.8000000715255737,
                    0.7392539381980896,
                    0.6100050210952759,
                    1
                ],
                "metallicFactor" : 0,
                "roughnessFactor" : 0.5
            }
        },
        {
            "doubleSided" : true,
            "name" : "Dark.001",
            "pbrMetallicRoughness" : {
                "baseColorFactor" : [
                    0.030947409570217133,
                    0.03239806741476059,
                    0.039678096771240234,
                    1
                ],
                "metallicFactor" : 0.4300518035888672,
                "roughnessFactor" : 0.5
            }
        },
        {
            "doubleSided" : true,
            "name" : "Screen",
            "pbrMetallicRoughness" : {
                "baseColorFactor" : [
                    0.004428973887115717,
                    0.004428973887115717,
                    0.004428973887115717,
                    1
                ],
                "metallicFactor" : 0,
                "roughnessFactor" : 0.040880490094423294
            }
        },
        {
            "doubleSided" : true,
            "name" : "Walls",
            "pbrMetallicRoughness" : {
                "baseColorFactor" : [
                    0.5229182243347168,
                    0.5975484251976013,
                    0.6465347409248352,
                    1
                ],
                "metallicFactor" : 0,
                "roughnessFactor" : 0.5
            }
        },
        {
            "alphaMode" : "BLEND",
            "doubleSided" : true,
            "name" : "62609592-f04b-4832-85dd-8de108ac1490_536x518",
            "pbrMetallicRoughness" : {
                "baseColorTexture" : {
                    "index" : 0
                },
                "metallicFactor" : 0,
                "roughnessFactor" : 0.5
            }
        },
        {
            "doubleSided" : true,
            "emissiveFactor" : [
                0.030818801077069136,
                1,
                0
            ],
            "name" : "Light Green",
            "pbrMetallicRoughness" : {
                "baseColorFactor" : [
                    0.046021718531847,
                    0.8000000715255737,
                    0.011812197975814342,
                    1
                ],
                "metallicFactor" : 0,
                "roughnessFactor" : 0
            }
        }
    ],
    "meshes" : [
        {
            "name" : "Cube.012",
            "primitives" : [
                {
                    "attributes" : {
                        "POSITION" : 0,
                        "NORMAL" : 1,
                        "TEXCOORD_0" : 2
                    },
                    "indices" : 3,
                    "material" : 0
                },
                {
                    "attributes" : {
                        "POSITION" : 4,
                        "NORMAL" : 5,
                        "TEXCOORD_0" : 6
                    },
                    "indices" : 7,
                    "material" : 1
                },
                {
                    "attributes" : {
                        "POSITION" : 8,
                        "NORMAL" : 9,
                        "TEXCOORD_0" : 10
                    },
                    "indices" : 11,
                    "material" : 2
                }
            ]
        },
        {
            "name" : "Cube.019",
            "primitives" : [
                {
                    "attributes" : {
                        "POSITION" : 12,
                        "NORMAL" : 13,
                        "TEXCOORD_0" : 14
                    },
                    "indices" : 15,
                    "material" : 0
                },
                {
                    "attributes" : {
                        "POSITION" : 16,
                        "NORMAL" : 17,
                        "TEXCOORD_0" : 18
                    },
                    "indices" : 19,
                    "material" : 1
                },
                {
                    "attributes" : {
                        "POSITION" : 20,
                        "NORMAL" : 21,
                        "TEXCOORD_0" : 22
                    },
                    "indices" : 23,
                    "material" : 3
                }
            ]
        },
        {
            "name" : "62609592-f04b-4832-85dd-8de108ac1490_536x518",
            "primitives" : [
                {
                    "attributes" : {
                        "POSITION" : 24,
                        "NORMAL" : 25,
                        "TEXCOORD_0" : 26
                    },
                    "indices" : 27,
                    "material" : 4
                }
            ]
        },
        {
            "name" : "Text",
            "primitives" : [
                {
                    "attributes" : {
                        "POSITION" : 28,
                        "NORMAL" : 29,
                        "TEXCOORD_0" : 30
                    },
                    "indices" : 31,
                    "material" : 5
                }
            ]
        }
    ],
    "textures" : [
        {
            "sampler" : 0,
            "source" : 0
        }
    ],
    "images" : [
        {
            "bufferView" : 28,
            "mimeType" : "image/png",
            "name" : "62609592-f04b-4832-85dd-8de108ac1490_536x518"
        }
    ],
    "accessors" : [
        {
            "bufferView" : 0,
            "componentType" : 5126,
            "count" : 255,
            "max" : [
                3.812440872192383,
                1.3390884399414062,
                1.0637999773025513
            ],
            "min" : [
                -1,
                -1,
                -1
            ],
            "type" : "VEC3"
        },
        {
            "bufferView" : 1,
            "componentType" : 5126,
            "count" : 255,
            "type" : "VEC3"
        },
        {
            "bufferView" : 2,
            "componentType" : 5126,
            "count" : 255,
            "type" : "VEC2"
        },
        {
            "bufferView" : 3,
            "componentType" : 5123,
            "count" : 786,
            "type" : "SCALAR"
        },
        {
            "bufferView" : 4,
            "componentType" : 5126,
            "count" : 118,
            "max" : [
                3.794163227081299,
                1.321943998336792,
                1.194230318069458
            ],
            "min" : [
                -0.9817224740982056,
                -0.9809221625328064,
                0.5962913632392883
            ],
            "type" : "VEC3"
        },
        {
            "bufferView" : 5,
            "componentType" : 5126,
            "count" : 118,
            "type" : "VEC3"
        },
        {
            "bufferView" : 6,
            "componentType" : 5126,
            "count" : 118,
            "type" : "VEC2"
        },
        {
            "bufferView" : 7,
            "componentType" : 5123,
            "count" : 288,
            "type" : "SCALAR"
        },
        {
            "bufferView" : 8,
            "componentType" : 5126,
            "count" : 24,
            "max" : [
                3.5995049476623535,
                1.1303741931915283,
                1.194230318069458
            ],
            "min" : [
                -0.7870640754699707,
                -0.7912858128547668,
                0.8057696223258972
            ],
            "type" : "VEC3"
        },
        {
            "bufferView" : 9,
            "componentType" : 5126,
            "count" : 24,
            "type" : "VEC3"
        },
        {
            "bufferView" : 10,
            "componentType" : 5126,
            "count" : 24,
            "type" : "VEC2"
        },
        {
            "bufferView" : 11,
            "componentType" : 5123,
            "count" : 66,
            "type" : "SCALAR"
        },
        {
            "bufferView" : 12,
            "componentType" : 5126,
            "count" : 209,
            "max" : [
                0.3063337802886963,
                0.3063337802886963,
                0.05965404957532883
            ],
            "min" : [
                -0.3063337802886963,
                -0.30766645073890686,
                -0.01995709165930748
            ],
            "type" : "VEC3"
        },
        {
            "bufferView" : 13,
            "componentType" : 5126,
            "count" : 209,
            "type" : "VEC3"
        },
        {
            "bufferView" : 14,
            "componentType" : 5126,
            "count" : 209,
            "type" : "VEC2"
        },
        {
            "bufferView" : 15,
            "componentType" : 5123,
            "count" : 486,
            "type" : "SCALAR"
        },
        {
            "bufferView" : 16,
            "componentType" : 5126,
            "count" : 530,
            "max" : [
                0.30539143085479736,
                0.30539143085479736,
                0.14091497659683228
            ],
            "min" : [
                -0.30539143085479736,
                -0.4369989335536957,
                -0.15583838522434235
            ],
            "type" : "VEC3"
        },
        {
            "bufferView" : 17,
            "componentType" : 5126,
            "count" : 530,
            "type" : "VEC3"
        },
        {
            "bufferView" : 18,
            "componentType" : 5126,
            "count" : 530,
            "type" : "VEC2"
        },
        {
            "bufferView" : 19,
            "componentType" : 5123,
            "count" : 1266,
            "type" : "SCALAR"
        },
        {
            "bufferView" : 20,
            "componentType" : 5126,
            "count" : 26,
            "max" : [
                0.2929064929485321,
                0.2929064929485321,
                0.07041597366333008
            ],
            "min" : [
                -0.2929064929485321,
                -0.2929064929485321,
                0.07041597366333008
            ],
            "type" : "VEC3"
        },
        {
            "bufferView" : 21,
            "componentType" : 5126,
            "count" : 26,
            "type" : "VEC3"
        },
        {
            "bufferView" : 22,
            "componentType" : 5126,
            "count" : 26,
            "type" : "VEC2"
        },
        {
            "bufferView" : 23,
            "componentType" : 5123,
            "count" : 72,
            "type" : "SCALAR"
        },
        {
            "bufferView" : 24,
            "componentType" : 5126,
            "count" : 56,
            "max" : [
                0.5,
                0.02044755220413208,
                0.5
            ],
            "min" : [
                -0.5,
                0,
                -0.5
            ],
            "type" : "VEC3"
        },
        {
            "bufferView" : 25,
            "componentType" : 5126,
            "count" : 56,
            "type" : "VEC3"
        },
        {
            "bufferView" : 26,
            "componentType" : 5126,
            "count" : 56,
            "type" : "VEC2"
        },
        {
            "bufferView" : 27,
            "componentType" : 5123,
            "count" : 324,
            "type" : "SCALAR"
        },
        {
            "bufferView" : 29,
            "componentType" : 5126,
            "count" : 193,
            "max" : [
                0.4240000247955322,
                0,
                0.009000000543892384
            ],
            "min" : [
                0.06400000303983688,
                0,
                -0.6910000443458557
            ],
            "type" : "VEC3"
        },
        {
            "bufferView" : 30,
            "componentType" : 5126,
            "count" : 193,
            "type" : "VEC3"
        },
        {
            "bufferView" : 31,
            "componentType" : 5126,
            "count" : 193,
            "type" : "VEC2"
        },
        {
            "bufferView" : 32,
            "componentType" : 5123,
            "count" : 435,
            "type" : "SCALAR"
        }
    ],
    "bufferViews" : [
        {
            "buffer" : 0,
            "byteLength" : 3060,
            "byteOffset" : 0
        },
        {
            "buffer" : 0,
            "byteLength" : 3060,
            "byteOffset" : 3060
        },
        {
            "buffer" : 0,
            "byteLength" : 2040,
            "byteOffset" : 6120
        },
        {
            "buffer" : 0,
            "byteLength" : 1572,
            "byteOffset" : 8160
        },
        {
            "buffer" : 0,
            "byteLength" : 1416,
            "byteOffset" : 9732
        },
        {
            "buffer" : 0,
            "byteLength" : 1416,
            "byteOffset" : 11148
        },
        {
            "buffer" : 0,
            "byteLength" : 944,
            "byteOffset" : 12564
        },
        {
            "buffer" : 0,
            "byteLength" : 576,
            "byteOffset" : 13508
        },
        {
            "buffer" : 0,
            "byteLength" : 288,
            "byteOffset" : 14084
        },
        {
            "buffer" : 0,
            "byteLength" : 288,
            "byteOffset" : 14372
        },
        {
            "buffer" : 0,
            "byteLength" : 192,
            "byteOffset" : 14660
        },
        {
            "buffer" : 0,
            "byteLength" : 132,
            "byteOffset" : 14852
        },
        {
            "buffer" : 0,
            "byteLength" : 2508,
            "byteOffset" : 14984
        },
        {
            "buffer" : 0,
            "byteLength" : 2508,
            "byteOffset" : 17492
        },
        {
            "buffer" : 0,
            "byteLength" : 1672,
            "byteOffset" : 20000
        },
        {
            "buffer" : 0,
            "byteLength" : 972,
            "byteOffset" : 21672
        },
        {
            "buffer" : 0,
            "byteLength" : 6360,
            "byteOffset" : 22644
        },
        {
            "buffer" : 0,
            "byteLength" : 6360,
            "byteOffset" : 29004
        },
        {
            "buffer" : 0,
            "byteLength" : 4240,
            "byteOffset" : 35364
        },
        {
            "buffer" : 0,
            "byteLength" : 2532,
            "byteOffset" : 39604
        },
        {
            "buffer" : 0,
            "byteLength" : 312,
            "byteOffset" : 42136
        },
        {
            "buffer" : 0,
            "byteLength" : 312,
            "byteOffset" : 42448
        },
        {
            "buffer" : 0,
            "byteLength" : 208,
            "byteOffset" : 42760
        },
        {
            "buffer" : 0,
            "byteLength" : 144,
            "byteOffset" : 42968
        },
        {
            "buffer" : 0,
            "byteLength" : 672,
            "byteOffset" : 43112
        },
        {
            "buffer" : 0,
            "byteLength" : 672,
            "byteOffset" : 43784
        },
        {
            "buffer" : 0,
            "byteLength" : 448,
            "byteOffset" : 44456
        },
        {
            "buffer" : 0,
            "byteLength" : 648,
            "byteOffset" : 44904
        },
        {
            "buffer" : 0,
            "byteLength" : 6259,
            "byteOffset" : 45552
        },
        {
            "buffer" : 0,
            "byteLength" : 2316,
            "byteOffset" : 51812
        },
        {
            "buffer" : 0,
            "byteLength" : 2316,
            "byteOffset" : 54128
        },
        {
            "buffer" : 0,
            "byteLength" : 1544,
            "byteOffset" : 56444
        },
        {
            "buffer" : 0,
            "byteLength" : 870,
            "byteOffset" : 57988
        }
    ],
    "samplers" : [
        {
            "magFilter" : 9729,
            "minFilter" : 9987,
            "wrapS" : 33071,
            "wrapT" : 33071
        }
    ],
    "buffers" : [
        {
            "byteLength" : 58860,
            "uri" : "data:application/octet-stream;base64,"
        }
    ]
}
